<?xml version="1.0" encoding="utf-8"?>
<!-- Generator: Adobe Illustrator 23.0.6, SVG Export Plug-In . SVG Version: 6.00 Build 0)  -->
<svg version="1.1" id="Layer_1" xmlns="http://www.w3.org/2000/svg" xmlns:xlink="http://www.w3.org/1999/xlink" x="0px" y="0px"
	 viewBox="0 0 850.39 850.39" style="enable-background:new 0 0 850.39 850.39;" xml:space="preserve">
<style type="text/css">
	.st0{fill:#2B414D;}
	.st1{fill:#FFFFFF;}
	.st2{fill:#E5E5E5;}
	.st3{fill:#F5F5F5;}
	.st4{fill:#E2E0E0;}
	.st5{fill:#E2574C;}
	.st6{fill:#3DB39E;}
	.st7{fill:none;}
	.st8{fill:#CCCCCC;}
	.st9{fill:#999999;}
</style>
<ellipse class="st0" cx="-566" cy="-126.06" rx="30.71" ry="20.65"/>
<g>
	<g>
		<path class="st0" d="M132.16,90.3h586.07c23.02,0,41.86,18.84,41.86,41.86v586.07c0,23.02-18.84,41.86-41.86,41.86H132.16
			c-23.03,0-41.86-18.84-41.86-41.86V132.16C90.3,109.13,109.13,90.3,132.16,90.3z"/>
		<path class="st1" d="M163.97,142.2h522.45c11.97,0,21.77,9.8,21.77,21.77v500.68c0,11.97-9.8,21.77-21.77,21.77H163.97
			c-11.97,0-21.77-9.8-21.77-21.77V163.97C142.2,152,152,142.2,163.97,142.2z"/>
		<path class="st2" d="M153.08,414.31h544.22v10.88H153.08V414.31z"/>
		<path class="st3" d="M142.2,664.65c0,11.97,9.8,21.77,21.77,21.77h522.45c11.97,0,21.77-9.8,21.77-21.77V425.2H142.2L142.2,664.65
			z"/>
		<path class="st4" d="M686.42,664.65H163.97c-11.97,0-21.77-9.8-21.77-21.77v21.77c0,11.97,9.8,21.77,21.77,21.77h522.45
			c11.97,0,21.77-9.8,21.77-21.77v-21.77C708.19,654.86,698.4,664.65,686.42,664.65z"/>
		<path class="st5" d="M142.2,385.48c-7.54,0-13.71,6.17-13.71,13.71v41.13c0,7.54,6.17,13.71,13.71,13.71
			c7.54,0,13.71-6.17,13.71-13.71v-41.13C155.91,391.65,149.74,385.48,142.2,385.48z M708.19,385.48c-7.54,0-13.71,6.17-13.71,13.71
			v41.13c0,7.54,6.17,13.71,13.71,13.71c7.54,0,13.71-6.17,13.71-13.71v-41.13C721.9,391.65,715.73,385.48,708.19,385.48z"/>
		<path class="st6" d="M397.98,180.3h54.42c9.25,0,16.33,7.07,16.33,16.33c0,9.25-7.07,16.33-16.33,16.33h-54.42
			c-9.25,0-16.33-7.07-16.33-16.33C381.66,187.92,388.73,180.3,397.98,180.3z"/>
		<g>
			<path class="st7" d="M628.91,587.53H609.3v19.59C609.31,596.34,618.13,587.53,628.91,587.53z"/>
			<path class="st3" d="M609.3,607.12v0.02c0-10.79,8.82-19.61,19.61-19.61h0C618.13,587.53,609.31,596.34,609.3,607.12z"/>
			<path class="st8" d="M609.3,626.75v59.67h98.9v-79.28h-79.29C618.12,607.14,609.3,615.96,609.3,626.75z"/>
			<path class="st9" d="M609.3,607.14v19.61c0-10.79,8.82-19.61,19.61-19.61h79.29v-19.61h-79.28
				C618.12,587.53,609.3,596.35,609.3,607.14z"/>
		</g>
		<polygon class="st0" points="708.19,587.53 609.3,686.42 601.34,729.77 737.24,715.46 		"/>
	</g>
	<g>
		<g>
			<path class="st5" d="M220.81,305.03c-3.47,0-6.77,0.29-9.88,0.87c-3.12,0.58-5.51,1.22-7.18,1.93
				c-0.71,2.76-1.35,6.22-1.93,10.37c-0.58,4.15-0.87,8.24-0.87,12.3c0,5.59,0.55,11.19,1.64,16.78c-5.66,2.44-8.49,7.94-8.49,16.49
				c0,5.34,1.06,12.67,3.18,21.99l7.71-0.19c-1.74-7.91-2.6-13.95-2.6-18.13c0-8.81,3.57-13.21,10.7-13.21h31.15v-24.11
				c0-8.87-1.82-15.27-5.45-19.19C235.16,307,229.17,305.03,220.81,305.03z M235.08,346.02h-23.72c-0.32-1.74-0.63-4.03-0.92-6.89
				c-0.29-2.86-0.43-5.74-0.43-8.63c0-5.02,0.48-10.48,1.45-16.39c2.63-0.58,5.33-0.87,8.1-0.87c5.4,0,9.34,1.3,11.81,3.91
				c2.47,2.6,3.71,6.86,3.71,12.78V346.02z"/>
			<rect x="314.44" y="361.93" class="st5" width="8.2" height="9.26"/>
			<rect x="327.37" y="361.93" class="st5" width="8.1" height="9.26"/>
			<path class="st5" d="M355.91,346.02h-26.23V306h-9.16v40.02h-26.23v-39.83c-2.44-0.51-5.58-0.98-9.4-1.4
				c-3.83-0.42-7.22-0.63-10.17-0.63c-5.27,0-9.44,0.89-12.49,2.65c-3.05,1.77-5.24,4.55-6.56,8.34c-1.32,3.79-2.01,8.87-2.07,15.24
				c0,6.75,1.17,12.41,3.52,16.97c2.35,4.56,7.25,6.85,14.71,6.85h13.21c0,4.37-0.35,7.7-1.06,9.98c-0.71,2.28-1.74,3.81-3.09,4.58
				c-1.35,0.77-3.12,1.16-5.3,1.16c-3.41,0-8.26-0.52-14.56-1.54v8.2c7.46,1.03,12.54,1.54,15.24,1.54c6.11,0,10.5-2.09,13.16-6.27
				c2.67-4.18,4.23-10.06,4.68-17.65h70.97v-68.66h-9.16V346.02z M285.13,346.02h-10.32c-4.95,0-8.2-1.49-9.74-4.48
				c-1.54-2.99-2.31-6.8-2.31-11.43c0.06-6.36,1.11-10.91,3.13-13.65c2.02-2.73,5.64-4.1,10.85-4.1c2.44,0,5.24,0.23,8.39,0.68
				V346.02z"/>
			<rect x="381.85" y="285.55" class="st5" width="9.16" height="68.66"/>
			<path class="st5" d="M446.36,350.94c2.51,0,5.06,0.34,7.67,1.01c2.6,0.67,4.77,1.43,6.51,2.27h43.3V306h-9.16v40.02H469.6v-24.69
				c0-5.91-1.45-10.11-4.34-12.58c-2.89-2.47-6.88-3.71-11.96-3.71c-2.83,0-6.4,0.31-10.7,0.92c-4.31,0.61-8.23,1.34-11.77,2.17
				l0.29,6.46c10.48-1.03,17.17-1.54,20.06-1.54c6.24,0,9.35,3.08,9.35,9.26v23.92c-1.67-0.9-3.92-1.69-6.75-2.36
				c-2.83-0.67-5.85-1.01-9.06-1.01c-6.62,0-11.61,1.66-14.95,4.97c-3.34,3.31-5.01,8.21-5.01,14.71c0,7.07,1.9,12.54,5.69,16.39
				c3.79,3.86,9.29,5.79,16.49,5.79c3.02,0,6.43-0.31,10.22-0.92c3.79-0.61,7.33-1.3,10.61-2.07l-1.06-7.14
				c-3.54,0.64-6.93,1.14-10.17,1.5c-3.25,0.35-5.83,0.53-7.76,0.53c-4.95,0-8.65-1.17-11.09-3.52c-2.44-2.35-3.66-5.67-3.66-9.98
				C434.02,354.99,438.13,350.94,446.36,350.94z"/>
			<rect x="444.43" y="287.58" class="st5" width="8.78" height="9.45"/>
			<rect x="488.7" y="361.93" class="st5" width="8.2" height="9.26"/>
			<rect x="501.62" y="361.93" class="st5" width="8.1" height="9.26"/>
			<path class="st5" d="M529.1,356.72c0,4.18-0.74,7.42-2.22,9.74c-1.48,2.32-3.66,3.47-6.56,3.47c-1.35,0-3.09-0.1-5.21-0.29v8.1
				l2.31,0.19c1.74,0.19,3.34,0.29,4.82,0.29c5.34,0,9.32-2.01,11.96-6.03c2.63-4.02,3.95-9.82,3.95-17.41v-48.7h-9.06V356.72z"/>
			<rect x="579.83" y="287.68" class="st5" width="8.2" height="9.35"/>
			<rect x="592.75" y="287.68" class="st5" width="8.1" height="9.35"/>
			<polygon class="st5" points="621.2,346.02 594.97,346.02 594.97,306 585.81,306 585.81,346.02 562.28,346.02 562.28,285.55 
				553.11,285.55 553.11,354.22 630.36,354.22 630.36,285.55 621.2,285.55 			"/>
			<rect x="647.14" y="285.55" class="st5" width="9.16" height="68.66"/>
		</g>
		<g>
			<path class="st6" d="M234.82,470.09c-3.87-2.8-9.41-4.2-16.61-4.2H194.1v68.85h24.12c6.4,0,11.54-1.23,15.41-3.7
				c3.87-2.47,6.7-6.32,8.51-11.56c1.8-5.24,2.7-12.12,2.7-20.66c0-6.94-0.7-12.76-2.1-17.46
				C241.33,476.65,238.69,472.89,234.82,470.09z M231.12,519.67c-2.6,4.44-6.9,6.65-12.91,6.65H203.7v-52.04h14.51
				c4.14,0,7.42,0.83,9.86,2.5c2.43,1.67,4.2,4.3,5.3,7.91c1.1,3.6,1.65,8.37,1.65,14.31C235.02,508.35,233.72,515.24,231.12,519.67
				z"/>
			<path class="st6" d="M293.36,524.13v-24.12c0-5.67-1.34-9.82-4-12.46c-2.67-2.63-6.94-3.95-12.81-3.95
				c-6.07,0-12.64,0.83-19.71,2.5l0.3,6.8c7.34-0.8,13.81-1.2,19.41-1.2c2.47,0,4.34,0.65,5.6,1.95c1.27,1.3,1.9,3.42,1.9,6.35v3.9
				l-14.21,1.3c-5.54,0.53-9.57,1.95-12.11,4.25c-2.54,2.3-3.8,5.92-3.8,10.86c0,5,1.23,8.84,3.7,11.51c2.47,2.67,6.07,4,10.81,4
				c5.67,0,11.34-1.3,17.01-3.9c1.53,1.33,3.3,2.32,5.3,2.95c2,0.63,4.44,0.95,7.3,0.95l0.3-7.2c-1.67-0.27-2.89-0.75-3.65-1.45
				C293.94,526.48,293.49,525.46,293.36,524.13z M284.06,525.43l-2.1,0.7c-3.8,1.27-7.74,1.9-11.81,1.9c-4.47,0-6.7-2.67-6.7-8
				c0-2.53,0.62-4.45,1.85-5.75c1.23-1.3,3.15-2.08,5.75-2.35l13.01-1.2V525.43z"/>
			<path class="st6" d="M325.48,527.53c-1.94,0-3.34-0.42-4.2-1.25c-0.87-0.83-1.42-2.03-1.65-3.6c-0.23-1.57-0.35-3.92-0.35-7.06
				V492.7h14.71v-8h-14.71v-14.91h-9.31v14.91h-6.7v8h6.7v24.62c0,4.74,0.43,8.44,1.3,11.11c0.87,2.67,2.28,4.57,4.25,5.7
				c1.97,1.13,4.72,1.7,8.26,1.7c2.53,0,6.14-0.4,10.81-1.2l-0.6-7.6L325.48,527.53z"/>
			<path class="st6" d="M362.31,483.6c-7.34,0-12.76,2.25-16.26,6.75c-3.5,4.5-5.25,11.39-5.25,20.66c0,8.61,1.63,14.89,4.9,18.86
				c3.27,3.97,8.74,5.95,16.41,5.95c4.8,0,11.11-0.67,18.91-2l-0.2-7.2l-2.8,0.3c-2.07,0.2-4.4,0.35-7,0.45
				c-2.6,0.1-4.94,0.15-7,0.15c-3.54,0-6.27-0.43-8.21-1.3c-1.94-0.87-3.34-2.28-4.2-4.25c-0.87-1.97-1.34-4.75-1.4-8.36h31.92
				l0.6-6.81C382.72,491.34,375.92,483.6,362.31,483.6z M350.1,506.31c0.07-5.2,1.07-8.99,3-11.36c1.93-2.37,5-3.55,9.21-3.55
				c4,0,6.85,1.13,8.56,3.4c1.7,2.27,2.55,6.1,2.55,11.51H350.1z"/>
			<polygon class="st6" points="460.27,465.89 410.24,465.89 410.24,474.39 430.55,474.39 430.55,534.73 440.16,534.73 
				440.16,474.39 460.27,474.39 			"/>
			<path class="st6" d="M479.68,483.6c-7.67,0-13.24,2.1-16.71,6.3c-3.47,4.2-5.2,10.87-5.2,20.01c0,8.94,1.7,15.5,5.1,19.66
				c3.4,4.17,9.01,6.25,16.81,6.25s13.41-2.1,16.81-6.3c3.4-4.2,5.1-10.74,5.1-19.61c0-9.07-1.72-15.73-5.15-19.96
				C493.01,485.72,487.42,483.6,479.68,483.6z M490.89,520.52c-0.74,2.54-1.99,4.37-3.75,5.5c-1.77,1.13-4.25,1.7-7.46,1.7
				c-3.2,0-5.7-0.57-7.51-1.7c-1.8-1.13-3.07-2.98-3.8-5.55c-0.74-2.57-1.1-6.09-1.1-10.56c0-4.67,0.38-8.32,1.15-10.96
				c0.77-2.63,2.05-4.5,3.85-5.6c1.8-1.1,4.27-1.65,7.4-1.65c3.14,0,5.59,0.55,7.35,1.65c1.77,1.1,3.03,2.95,3.8,5.55
				c0.77,2.6,1.15,6.27,1.15,11.01C491.99,514.45,491.62,517.99,490.89,520.52z"/>
			<path class="st6" d="M543.42,485c-4.27-0.93-8.17-1.4-11.71-1.4c-7.34,0-12.68,2.12-16.01,6.35c-3.34,4.24-5,11.09-5,20.56
				c0,8.54,1.4,14.9,4.2,19.06c2.8,4.17,7.44,6.25,13.91,6.25c4.54,0,9.41-1.37,14.61-4.1v3h9.31v-71.25h-9.31V485z M543.42,524.43
				l-1.8,0.7c-1.54,0.6-3.34,1.14-5.4,1.6c-2.07,0.47-3.9,0.7-5.5,0.7c-3.8,0-6.49-1.4-8.06-4.2c-1.57-2.8-2.35-7.2-2.35-13.21
				c0-6.6,0.93-11.31,2.8-14.11c1.87-2.8,5.1-4.2,9.71-4.2c2.94,0,6.47,0.4,10.61,1.2V524.43z"/>
			<path class="st6" d="M602.76,524.13v-24.12c0-5.67-1.34-9.82-4-12.46c-2.67-2.63-6.94-3.95-12.81-3.95
				c-6.07,0-12.64,0.83-19.71,2.5l0.3,6.8c7.34-0.8,13.81-1.2,19.41-1.2c2.47,0,4.34,0.65,5.6,1.95c1.27,1.3,1.9,3.42,1.9,6.35v3.9
				l-14.21,1.3c-5.54,0.53-9.57,1.95-12.11,4.25c-2.54,2.3-3.8,5.92-3.8,10.86c0,5,1.23,8.84,3.7,11.51c2.47,2.67,6.07,4,10.81,4
				c5.67,0,11.34-1.3,17.01-3.9c1.53,1.33,3.3,2.32,5.3,2.95c2,0.63,4.44,0.95,7.3,0.95l0.3-7.2c-1.67-0.27-2.89-0.75-3.65-1.45
				C603.34,526.48,602.89,525.46,602.76,524.13z M593.45,525.43l-2.1,0.7c-3.8,1.27-7.74,1.9-11.81,1.9c-4.47,0-6.7-2.67-6.7-8
				c0-2.53,0.62-4.45,1.85-5.75c1.23-1.3,3.15-2.08,5.75-2.35l13.01-1.2V525.43z"/>
			<polygon class="st6" points="646.99,484.7 635.48,526.73 632.48,526.73 621.07,484.7 611.77,484.7 625.38,534.73 633.48,534.73 
				627.28,556.55 636.48,556.55 656.3,484.7 			"/>
		</g>
	</g>
</g>
</svg>
