<?xml version="1.0" encoding="utf-8"?>
<!-- Generator: Adobe Illustrator 23.0.6, SVG Export Plug-In . SVG Version: 6.00 Build 0)  -->
<svg version="1.1" id="Layer_1" xmlns="http://www.w3.org/2000/svg" xmlns:xlink="http://www.w3.org/1999/xlink" x="0px" y="0px"
	 viewBox="0 0 850.39 850.39" style="enable-background:new 0 0 850.39 850.39;" xml:space="preserve">
<style type="text/css">
	.st0{fill:#fef166;}
	.st1{fill:#fff;}
</style>
<g>
	<g>
		<g>
			<path class="st0" d="M81.87,374.83c2.24,0,4.36,0.47,6.35,1.44c1.52-2.58,2.29-4.61,2.29-6.05c0-2.88-2.62-4.32-7.83-4.32
				c-12.99,0-22.98,7.74-22.98,19.09c0,1.18,0.76,2.84,2.33,4.99c1.74-0.8,3.55-1.19,5.5-1.19c4.19,0,7.36,1.4,9.52,4.19
				c4.06,7.91-2.07,13.5-11.34,13.8c-9.48,0.21-18.58-5.29-20.06-16.08c-0.17-1.4,0.3-2.96,1.44-4.74c-2.58-1.4-4.61-2.07-6.09-2.07
				c-3,0-4.23,2.16-4.23,6.77c0,11.89,5.8,18.45,17.94,23.7c4.23,1.82,8.68,2.67,13.33,2.58c8.93-0.3,16.8-4.19,20.19-10.33
				c1.9-3.34,2.37-6.98,1.44-10.92c-0.21-1.44-0.72-2.84-1.44-4.15l-0.04-0.04c-1.18-2.07-2.92-3.94-5.21-5.59
				c-3.64-2.58-8.17-4.06-13.54-4.36C71.16,377.63,76.62,374.83,81.87,374.83z"/>
			<path class="st0" d="M59.4,419.9c-3.05,0-5.42,2.33-5.42,5.25c0,2.67,1.86,4.49,4.57,4.49c3.17,0,5.54-2.33,5.54-5.33
				C64.09,421.81,62.15,419.9,59.4,419.9z"/>
			<path class="st0" d="M72.13,419.9c-3.05,0-5.37,2.33-5.37,5.25c0,2.67,1.82,4.49,4.57,4.49c3.09,0,5.5-2.33,5.5-5.33
				C76.83,421.81,74.89,419.9,72.13,419.9z"/>
			<path class="st0" d="M144.74,419.9c-3.05,0-5.42,2.33-5.42,5.25c0,2.67,1.86,4.44,4.57,4.44c3.17,0,5.54-2.29,5.54-5.29
				C149.44,421.81,147.45,419.9,144.74,419.9z"/>
			<path class="st0" d="M260.94,356.89c-3.22,0-5.21,2.03-5.21,5.12c0,0.63,0.04,7.03,0.17,19.13l0.21,19.93
				c0,3.68-0.85,5.21-3.43,5.21h-14.51c1.27-2.33,1.9-4.87,1.9-7.7c0-11.38-9.99-19.93-22.39-19.93c-5.37,0-7.83,1.27-7.83,4.27
				c0,0.47,0.08,0.97,0.21,1.52c-10.16,0.55-17.48,6.77-17.48,15.7c0,2.24,0.51,4.27,1.48,6.14h-17.21
				c0.08-1.48,0.08-2.92-0.04-4.23c-3.34,1.35-11.55-2.07-19.72-7.49c-8.13-5.42-14.39-11.64-14.39-15.15
				c-3.77,0.17-7.41,3.09-8.55,6.48c-0.51,1.57-0.38,3.05,0.38,4.53c1.06,1.99,4.78,4.99,11.22,9.01c5.71,3.64,9.9,5.93,12.57,6.86
				h-42.57c-0.04-5.16-0.04-10.54-0.04-16.08c0-4.06,0.42-6.77,1.31-8.17c-1.82-1.82-4.19-2.71-7.15-2.71
				c-3.17,0-5.21,2.24-5.21,5.46c0,0.63,0.04,3.89,0.17,9.69c0.17,5.8,0.25,9.27,0.25,10.41c0,1.86,0,2.92-0.04,3.17
				c0.04,1.48,0.08,3.09,0.08,4.74c0,7.07-1.48,9.9-5.21,9.9c-1.4,0-2.62-0.51-3.77-1.57c-1.52,1.99-2.29,3.72-2.29,5.21
				c0,2.88,3.47,5.42,7.74,5.42c12.99,0,14.09-8.08,14.09-17.35c1.06,0.68,2.45,1.02,4.27,1.02h44.43c6.64,0,8.89-0.42,10.88-3.6
				c0.93,2.37,3.05,3.55,6.35,3.6h37.99c5.16-0.04,9.52-1.14,13.04-3.39c0.93,2.24,3,3.39,6.22,3.39h19.5c5.71,0,8.55-3.13,8.55-9.4
				l-0.08-18.96c-0.04-12.15-0.04-18.71-0.04-19.64c0-4.06,0.42-6.81,1.27-8.21C266.1,357.65,263.73,356.89,260.94,356.89z
				 M207.83,406.28h-4.27c-1.65-0.97-2.03-2.75-2.03-6.18c0-4.11,2.96-8.76,7.03-9.78l0.25,12.36
				C208.81,404.5,208.47,405.68,207.83,406.28z M219.22,406.28h-1.9v-0.25c0-0.34,0-2.45-0.04-6.39c-0.04-3.89-0.04-6.22-0.04-6.94
				c0-2.24,0.17-3.94,0.47-5.12h0.08c6.05,0,10.2,3.89,10.2,9.52C227.98,402.38,224.3,406.28,219.22,406.28z"/>
			<path class="st0" d="M279.43,356.8c-3.26,0-5.25,1.99-5.25,5.16c0,0.68,0.08,7.79,0.3,21.29l0.25,21.54
				c0,4.06-0.42,6.81-1.27,8.21c1.99,1.57,4.36,2.37,7.15,2.37c3.22,0,5.21-1.99,5.21-5.16l-0.25-21.29
				c-0.21-13.5-0.3-20.65-0.3-21.54c0-4.06,0.42-6.81,1.27-8.21C284.59,357.61,282.22,356.8,279.43,356.8z"/>
			<path class="st0" d="M341.84,384.19c3.17,0,5.59-2.33,5.59-5.33c0-2.5-1.99-4.4-4.74-4.4c-3,0-5.37,2.33-5.37,5.25
				C337.32,382.37,339.14,384.19,341.84,384.19z"/>
			<path class="st0" d="M377.55,384.27c0,0.63,0.08,3.3,0.21,8c0.13,4.7,0.21,7.62,0.21,8.76c0,3.72-0.89,5.25-3.43,5.25h-19.41
				c0.13-1.48,0.13-2.92,0-4.23c-3.39,1.35-11.6-2.07-19.72-7.49c-8.13-5.42-14.39-11.64-14.39-15.15
				c-3.85,0.17-7.41,3.09-8.55,6.48c-0.55,1.57-0.42,3.05,0.38,4.53c2.07,3.94,18.45,14.01,23.74,15.87h-11.3
				c-10.37,1.4-16.84,7.87-16.84,16.84c0,11.34,9.99,19.89,22.35,19.89c5.37,0,7.83-1.27,7.83-4.27c0-1.44-0.8-3.47-2.37-6.09
				c-1.74,0.97-3.55,1.44-5.5,1.44c-6.05,0-10.2-3.89-10.2-9.48c0-5.46,4.4-9.14,12.57-9.18h9.56c6.64,0,8.93-0.42,10.92-3.6
				c0.89,2.41,3,3.6,6.31,3.6h20.35c5.67,0,8.51-3.09,8.51-9.31c0-0.47,0-3.09-0.04-7.87l-0.08-8.55c0-4.06,0.42-6.77,1.27-8.17
				c-1.99-1.57-4.36-2.37-7.15-2.37C379.54,379.15,377.55,381.1,377.55,384.27z"/>
			<path class="st0" d="M385,419.9c-1.48,0-2.75,0.51-3.81,1.57c-1.06,0.97-1.61,2.2-1.61,3.68c0,2.67,1.86,4.49,4.57,4.49
				c1.61,0,2.92-0.51,3.98-1.57c1.06-0.97,1.61-2.24,1.61-3.77c0-1.23-0.47-2.29-1.35-3.09C387.5,420.33,386.4,419.9,385,419.9z"/>
			<path class="st0" d="M372.26,419.9c-1.48,0-2.75,0.51-3.81,1.57c-1.06,0.97-1.61,2.2-1.61,3.68c0,2.67,1.86,4.49,4.57,4.49
				c3.17,0,5.59-2.29,5.59-5.33C377,421.81,375.01,419.9,372.26,419.9z"/>
			<path class="st0" d="M409.25,379.32c-3.22,0-5.21,2.24-5.21,5.46c0,0.63,0.08,3.89,0.21,9.69c0.13,5.8,0.17,9.27,0.17,10.41v3.17
				c0.04,1.48,0.08,3.09,0.08,4.74c0,7.07-1.48,9.9-5.21,9.9c-1.35,0-2.62-0.51-3.77-1.57c-1.48,1.99-2.24,3.72-2.24,5.21
				c0,2.88,3.47,5.42,7.74,5.42c12.99,0,13.67-5.04,14.14-23.7c-0.04-1.31-0.08-7.24-0.08-17.86c0-4.06,0.42-6.77,1.31-8.17
				C414.58,380.21,412.21,379.32,409.25,379.32z"/>
			<path class="st0" d="M452.96,373.52c3.22,0,5.59-2.29,5.59-5.29c0-2.54-1.99-4.44-4.74-4.44c-3,0-5.42,2.37-5.42,5.29
				C448.39,371.74,450.25,373.52,452.96,373.52z"/>
			<path class="st0" d="M465.74,373.52c3.17,0,5.54-2.29,5.54-5.29c0-2.54-1.95-4.44-4.7-4.44c-3,0-5.42,2.37-5.42,5.29
				C461.17,371.74,463.03,373.52,465.74,373.52z"/>
			<path class="st0" d="M486.72,356.89c-3.22,0-5.21,2.03-5.21,5.12c0,0.63,0.04,7.03,0.17,19.13l0.21,19.93
				c0,3.68-0.85,5.21-3.43,5.21h-10.24c-1.52-0.04-3.26-1.86-3.39-4.95l-0.13-11.68c0-4.06,0.42-6.81,1.31-8.21
				c-1.99-1.57-4.4-2.37-7.15-2.37c-3.26,0-5.25,1.99-5.25,5.16c0,0.63,0.08,3.3,0.21,8.04c0.13,4.7,0.17,7.62,0.17,8.76
				c0,3.72-0.85,5.25-3.39,5.25h-13.71c-2.58,0-3.43-1.52-3.43-5.21c0-0.42,0-6.05,0.04-16.89c0.04-10.79,0.04-16.42,0.04-16.8
				c0-4.06,0.42-6.81,1.27-8.21c-1.99-1.57-4.36-2.37-7.15-2.37c-3.22,0-5.21,1.99-5.21,5.16l0.21,19.76
				c-0.04,10.11-0.04,18.2-0.04,24.33c0,6.22,2.84,9.35,8.55,9.35h25.13c2.84,0,4.95-0.8,6.39-2.37c1.14,1.57,2.96,2.37,5.5,2.37
				h15.95c5.71,0,8.55-3.13,8.55-9.4l-0.08-18.96c-0.04-12.15-0.04-18.71-0.04-19.64c0-4.06,0.42-6.81,1.27-8.21
				C491.89,357.65,489.52,356.89,486.72,356.89z"/>
			<path class="st0" d="M511.05,367.38c0-4.06,0.42-6.81,1.27-8.21c-1.95-1.57-4.32-2.37-7.11-2.37c-3.26,0-5.25,1.99-5.25,5.16
				c0,0.68,0.08,7.79,0.3,21.29l0.25,21.54c0,4.06-0.42,6.81-1.27,8.21c1.99,1.57,4.36,2.37,7.15,2.37c3.22,0,5.21-1.99,5.21-5.16
				l-0.25-21.29C511.14,375.42,511.05,368.27,511.05,367.38z"/>
		</g>
		<g>
			<path class="st1" d="M88.08,460.39c0-4.7-1.69-6.39-6.39-6.39c-2.83,0-5.81,0.77-9.08,2.2c1.47,3.31,2.06,8.63,2.06,16.09v1.29
				H51.74c0.37-7.39,0.62-11.79,0.62-13.19c0-4.63-1.69-6.39-6.47-6.39c-2.83,0-5.88,0.77-9.15,2.24c1.73,3.49,2.2,9.81,2.2,19.03
				c0,10.21-0.92,17.75-0.92,22.6c0,5.11,1.51,6.94,6.32,6.94c2.9,0,5.95-0.77,9.3-2.28c-1.47-3.42-2.06-9-2.06-16.97v-2.68h22.85
				c-0.22,8.45-0.55,13.48-0.55,15.1c0,5,1.54,6.83,6.25,6.83c2.98,0,6.03-0.77,9.3-2.28c-1.65-3.6-2.2-9.85-2.2-18.89
				C87.24,471.93,88.08,464.22,88.08,460.39z"/>
			<path class="st1" d="M127.55,474.58c0-3.75-1.51-5.33-5.11-5.33c-2.79,0-5.47,0.62-8.3,1.98c1.29,2.72,1.69,6.69,1.69,12.01
				c0,7.42-0.62,12.82-0.62,16.17c0,3.82,1.29,5.33,5.03,5.33c2.83,0,5.55-0.62,8.38-1.98c-1.43-3.49-1.76-7.24-1.76-11.57
				C126.85,484.39,127.55,478.84,127.55,474.58z"/>
			<path class="st1" d="M121.3,464.14c3.89,0,6.8-2.83,6.8-6.25c0-3.2-2.39-5.62-5.81-5.62c-3.67,0-6.61,2.9-6.61,6.47
				C115.68,461.94,117.88,464.14,121.3,464.14z"/>
			<path class="st1" d="M169.29,452.27c-3.6,0-6.54,2.9-6.54,6.47c0,3.2,2.2,5.4,5.62,5.4c3.97,0,6.76-2.65,6.76-6.17
				C175.13,454.7,172.78,452.27,169.29,452.27z"/>
			<path class="st1" d="M169.51,469.17c-2.5,0-5.25,0.7-8.38,2.06c1.54,3.34,1.98,9.66,1.98,19.18c0,10.07-0.22,16.46-4.56,20.87
				c-2.06,2.06-5.25,2.9-5.25,5.47c0,1.98,1.36,3.12,3.78,3.12c6.1,0,13.56-5.55,15.91-14.37c0.99-3.75,1.84-13.19,1.84-28.25
				C174.83,471.6,174.47,469.17,169.51,469.17z"/>
			<path class="st1" d="M222.31,469.03c-4.12,0-7.16,2.98-10.21,9.04h-0.15c0.15-1.29,0.22-2.28,0.22-3.12
				c0-4.08-1.69-5.84-5.77-5.84c-2.13,0-4.26,0.44-6.58,1.14c1.29,3.27,1.69,6.83,1.69,10.8c0,8.71-0.77,14.88-0.77,18.59
				c0,3.67,1.47,5.18,5.18,5.18c2.83,0,5.66-0.77,8.74-2.2c-1.65-2.76-2.28-6.69-2.28-11.94c0-2.06,0.07-4.04,0.26-5.95
				c1.95-3.75,4-5.58,6.21-5.58c1.76,0,2.98,1.07,3.31,3.16c3.93-1.91,5.69-4.12,5.69-7.42
				C227.86,471.38,225.5,469.03,222.31,469.03z"/>
			<path class="st1" d="M265.96,474.58c0-3.75-1.51-5.33-5.11-5.33c-2.79,0-5.47,0.62-8.3,1.98c1.29,2.72,1.69,6.69,1.69,12.01
				c0,7.42-0.62,12.82-0.62,16.17c0,3.82,1.29,5.33,5.03,5.33c2.83,0,5.55-0.62,8.38-1.98c-1.43-3.49-1.76-7.24-1.76-11.57
				C265.26,484.39,265.96,478.84,265.96,474.58z"/>
			<path class="st1" d="M259.71,464.14c3.89,0,6.8-2.83,6.8-6.25c0-3.2-2.39-5.62-5.81-5.62c-3.67,0-6.61,2.9-6.61,6.47
				C254.09,461.94,256.3,464.14,259.71,464.14z"/>
			<path class="st1" d="M330.63,458.04c-5.95-3.42-12.79-4.34-21.24-4.34c-1.32,0-7.24,0.29-17.67,0.4
				c1.58,3.78,2.13,10.51,2.13,20.39c0,11.35-0.77,19.25-0.77,23.77c0,5.55,3.27,6.83,13.01,6.83c23.11,0,36.12-10.8,36.12-27.34
				C342.2,469.25,338.16,462.3,330.63,458.04z M311.19,494.75c-1.36,0-2.79-0.15-4.34-0.44c-0.22-3.89-0.29-8.08-0.29-12.49
				c0-6.32,0.07-12.35,0.37-18.19c1.47-0.26,2.98-0.33,4.52-0.33c10.73,0,17.27,6.1,17.27,15.87
				C328.72,488.5,322.1,494.75,311.19,494.75z"/>
			<path class="st1" d="M398.68,482.81c0-9.74-4.67-14.07-15.32-14.07c-8.93,0-13.85,3.09-13.85,7.05c0,1.69,0.99,3.05,2.87,3.97
				c1.91-2.65,4.81-3.89,8.78-3.89c4.81,0,7.46,2.2,7.46,5.73v1.29c-2.13-0.29-3.89-0.44-5.33-0.44c-10.36,0-16.39,4.85-16.39,12.31
				c0,6.17,4.52,10.43,11.5,10.43c4.04,0,7.16-1.43,10.43-4.41c0.33,2.68,1.84,3.97,4.59,3.97c2.13,0,4.63-0.77,7.46-2.42
				c-1.76-2.46-2.35-6.32-2.35-11.76C398.53,486.48,398.68,483.87,398.68,482.81z M382.14,498.05c-3.2,0-5.11-1.76-5.11-4.52
				c0-3.27,2.65-5.25,7.61-5.25c0.92,0,2.2,0.07,3.82,0.33v2.28c0,1.65,0,3.12,0.07,4.26C386.55,497.14,384.57,498.05,382.14,498.05
				z"/>
			<path class="st1" d="M449.79,470.46c-1.07,0-3.27,0.22-6.61,0.4c0.29-3.45,0.51-5.66,0.51-6.58c0-3.42-1.58-4.92-5-4.92
				c-2.46,0-4.89,0.73-7.57,2.02c0.99,1.98,1.47,4.52,1.47,7.86c0,0.62-0.07,1.36-0.07,2.06c-1.07,0.07-2.06,0.15-2.9,0.15
				c-1.07,0-1.98-0.07-2.76-0.22c-0.88,1.84-1.29,3.27-1.29,4.41c0,2.06,1.14,2.76,3.6,2.76c0.88,0,1.8-0.07,2.94-0.22
				c-0.22,6.39-0.88,11.5-0.88,15.43c0,7.72,3.49,11.5,10.73,11.5c5.77,0,8.96-2.13,8.96-5.33c0-1.36-0.51-2.57-1.58-3.97
				c-0.99,0.77-1.91,1.1-2.9,1.1c-2.9,0-4.26-2.54-4.26-7.86c0-3.2,0.22-6.94,0.55-11.13c2.5-0.07,4-0.22,4.34-0.22
				c1.51,0,2.79,0.07,4.04,0.55c1.29-1.91,1.95-3.53,1.95-5.11C453.06,471.16,452.03,470.46,449.79,470.46z"/>
			<path class="st1" d="M498.1,489.75c9.88,0,14.22-1.84,14.22-8.3c0-7.24-6.06-12.64-15.54-12.64c-11.39,0-19.03,7.53-19.03,18.55
				c0,11.35,7.09,17.82,20.02,17.82c7.94,0,12.2-2.35,12.2-5.84c0-1.4-0.77-2.9-2.28-4.52c-2.2,1.76-5.18,2.61-9,2.61
				c-6.69,0-10.29-2.9-10.29-8.16v-0.15C491.6,489.57,494.83,489.75,498.1,489.75z M496.12,475.94c3.34,0,5.55,2.13,5.55,5.36
				c0,2.35-1.65,2.79-5.03,2.79c-1.8,0-4.41-0.22-7.75-0.59C489.58,478.62,492.23,475.94,496.12,475.94z"/>
		</g>
	</g>
	<g>
		<g>
			<path class="st0" d="M786.87,455.8h-3.66v-7.33c0-20.21-24.29-35.46-33.99-40.74c-0.03-0.69-0.25-1.35-0.63-1.93
				c1.66-1.06,2.69-2.87,2.69-4.83c0-1.96-1.03-3.77-2.69-4.84c0.42-0.62,0.65-1.35,0.65-2.1c0-1.32-0.68-2.52-1.81-3.22L746,379.55
				c-0.05-0.36-0.35-0.63-0.72-0.63c-0.36,0-0.67,0.27-0.72,0.63l-1.42,11.26c-1.13,0.7-1.81,1.9-1.81,3.22
				c0,0.75,0.23,1.48,0.65,2.1c-1.66,1.06-2.69,2.87-2.69,4.84c0,1.96,1.03,3.77,2.69,4.83c-0.39,0.57-0.6,1.24-0.63,1.93
				c-9.7,5.29-33.99,20.54-33.99,40.74v7.33h-3.66c-0.89,0-1.61,0.72-1.61,1.61v15.72c0,0.89,0.72,1.61,1.61,1.61h1.83v31.92h14.43
				v-1.45c0-14.65,25.33-24.26,25.33-24.26s25.33,9.6,25.33,24.26v1.45h14.43v-31.92h1.83c0.89,0,1.61-0.72,1.61-1.61v-15.72
				C788.48,456.52,787.76,455.8,786.87,455.8z M718.59,469.62h-2.33h-2.33v-5.26c0-2.08,1.29-3.45,2.33-3.45
				c1.03,0,2.33,1.36,2.33,3.45V469.62z M733.1,469.62h-2.33h-2.33v-5.26c0-2.08,1.29-3.45,2.33-3.45c1.03,0,2.33,1.36,2.33,3.45
				V469.62z M747.61,469.62h-2.33h-2.33v-5.26c0-2.08,1.29-3.45,2.33-3.45c1.03,0,2.33,1.36,2.33,3.45V469.62z M762.11,469.62h-2.33
				h-2.33v-5.26c0-2.08,1.29-3.45,2.33-3.45c1.03,0,2.33,1.36,2.33,3.45V469.62z M776.62,469.62h-2.33h-2.33v-5.26
				c0-2.08,1.29-3.45,2.33-3.45c1.03,0,2.33,1.36,2.33,3.45V469.62z"/>
			<g>
				<g>
					<path class="st1" d="M787.65,315h-24.78v-7.28c0-8.6-7-15.59-15.59-15.59s-15.59,7-15.59,15.59V315h-87.32v-7.28
						c0-8.6-7-15.59-15.59-15.59s-15.59,7-15.59,15.59v7.47c-0.44-0.12-0.9-0.19-1.39-0.19h-20.71c-14.33,0-25.99,11.66-25.99,25.99
						v88.54c0,2.87,2.33,5.2,5.2,5.2c2.87,0,5.2-2.33,5.2-5.2v-60.99h187.39c2.87,0,5.2-2.33,5.2-5.2s-2.33-5.2-5.2-5.2H575.49
						v-17.15c0-8.6,7-15.59,15.59-15.59h20.71c0.48,0,0.94-0.07,1.39-0.19v6.69c0,8.6,7,15.59,15.59,15.59s15.59-7,15.59-15.59v-6.5
						h87.32v6.5c0,8.6,7,15.59,15.59,15.59s15.59-7,15.59-15.59v-6.5h24.78c8.6,0,15.59,7,15.59,15.59v197.51
						c0,5.16-4.2,9.36-9.36,9.36s-9.36-4.2-9.36-9.36v-13.45c0-2.87-2.33-5.2-5.2-5.2h-60.46c-2.87,0-5.2,2.33-5.2,5.2
						c0,2.87,2.33,5.2,5.2,5.2h55.26v8.25c0,3.38,0.86,6.57,2.36,9.36H567.27c-5.16,0-9.36-4.2-9.36-9.36v-8.25h116.34
						c2.87,0,5.2-2.33,5.2-5.2c0-2.87-2.33-5.2-5.2-5.2h-51.93c9.08-7.82,14.85-19.39,14.85-32.29c0-23.5-19.12-42.62-42.62-42.62
						c-23.5,0-42.62,19.12-42.62,42.62c0,12.9,5.77,24.47,14.85,32.29h-14.06c-2.87,0-5.2,2.33-5.2,5.2v13.45
						c0,10.89,8.86,19.75,19.75,19.75h226.62c10.89,0,19.75-8.86,19.75-19.75V340.99C813.64,326.66,801.98,315,787.65,315z
						 M633.97,331.9c0,2.87-2.33,5.2-5.2,5.2c-2.87,0-5.2-2.33-5.2-5.2v-24.17c0-2.87,2.33-5.2,5.2-5.2c2.87,0,5.2,2.33,5.2,5.2
						V331.9z M752.48,331.9c0,2.87-2.33,5.2-5.2,5.2c-2.87,0-5.2-2.33-5.2-5.2v-24.17c0-2.87,2.33-5.2,5.2-5.2
						c2.87,0,5.2,2.33,5.2,5.2V331.9z M562.32,487.57c0-17.77,14.46-32.23,32.23-32.23s32.23,14.46,32.23,32.23
						s-14.46,32.23-32.23,32.23S562.32,505.34,562.32,487.57z"/>
				</g>
			</g>
		</g>
		<g>
			<g>
				<path class="st0" d="M667.2,448.48c-10.54,0-19.12,8.58-19.12,19.12s8.58,19.12,19.12,19.12s19.12-8.58,19.12-19.12
					S677.74,448.48,667.2,448.48z M667.2,476.65c-4.99,0-9.06-4.06-9.06-9.06s4.06-9.06,9.06-9.06c4.99,0,9.06,4.06,9.06,9.06
					S672.19,476.65,667.2,476.65z"/>
			</g>
		</g>
		<g>
			<g>
				<path class="st0" d="M616.48,396.15c-10.54,0-19.12,8.58-19.12,19.12s8.58,19.12,19.12,19.12s19.12-8.58,19.12-19.12
					S627.02,396.15,616.48,396.15z M616.48,424.32c-4.99,0-9.06-4.06-9.06-9.06s4.06-9.06,9.06-9.06c4.99,0,9.06,4.06,9.06,9.06
					S621.48,424.32,616.48,424.32z"/>
			</g>
		</g>
		<g>
			<g>
				<path class="st0" d="M669.07,396.15c-10.54,0-19.12,8.58-19.12,19.12s8.58,19.12,19.12,19.12s19.12-8.58,19.12-19.12
					S679.62,396.15,669.07,396.15z M669.07,424.32c-4.99,0-9.06-4.06-9.06-9.06s4.06-9.06,9.06-9.06s9.06,4.06,9.06,9.06
					S674.07,424.32,669.07,424.32z"/>
			</g>
		</g>
		<g>
			<g>
				<path class="st0" d="M613.06,472.44c-1.97-1.96-5.15-1.96-7.12,0l-16.39,16.39l-5.6-5.6c-1.97-1.96-5.15-1.96-7.12,0
					c-1.96,1.96-1.96,5.15,0,7.12l9.16,9.16c0.94,0.94,2.22,1.47,3.56,1.47s2.61-0.53,3.56-1.47l19.94-19.94
					C615.02,477.59,615.02,474.4,613.06,472.44z"/>
			</g>
		</g>
	</g>
</g>
</svg>
